<svg id="Layer_1" data-name="Layer 1" xmlns="http://www.w3.org/2000/svg" xmlns:xlink="http://www.w3.org/1999/xlink" viewBox="0 0 287.67 258.84"><defs><clipPath id="clip-path"><rect x="2.61" y="3.89" width="282.67" height="250.84" style="fill:none"/></clipPath></defs><title>aisp-diagram</title><g style="clip-path:url(#clip-path)"><path d="M39.67,169.19a27,27,0,1,0,27-27,27,27,0,0,0-27,27" style="fill:#6e79b9"/></g><path d="M66.63,153.12l-8.08,4.26v1.7H74.72v-1.7Zm3.83,13.62H73v-6H70.46ZM58.55,171H74.72v-2.55H58.55Zm6.81-4.25h2.55v-6H65.36Zm-5.11,0h2.56v-6H60.25Z" style="fill:#fff"/><path d="M49.7,178.27a2.34,2.34,0,0,1,2.4-2.42,2.09,2.09,0,0,1,1.78.93l-.49.27a1.59,1.59,0,0,0-1.29-.68,1.9,1.9,0,0,0,0,3.8,1.57,1.57,0,0,0,1.29-.68l.5.28a2.14,2.14,0,0,1-1.79.92A2.34,2.34,0,0,1,49.7,178.27Z" style="fill:#fff"/><path d="M56.9,180.61v-.48a1.64,1.64,0,0,1-1.21.56,1,1,0,0,1-1.08-1.08v-2.39h.53v2.23c0,.6.3.77.76.77a1.29,1.29,0,0,0,1-.51v-2.49h.53v3.39Z" style="fill:#fff"/><path d="M58.19,180.16l.27-.38a1.56,1.56,0,0,0,1.12.49c.52,0,.8-.25.8-.59,0-.82-2.1-.31-2.1-1.57,0-.53.46-1,1.26-1a1.69,1.69,0,0,1,1.26.5l-.24.36a1.37,1.37,0,0,0-1-.43c-.46,0-.75.23-.75.54,0,.74,2.1.25,2.1,1.57,0,.57-.45,1-1.33,1A1.77,1.77,0,0,1,58.19,180.16Z" style="fill:#fff"/><path d="M61.86,179.9v-2.22H61.3v-.46h.56v-.93h.52v.93h.69v.46h-.69v2.11c0,.25.12.43.35.43a.5.5,0,0,0,.36-.14l.15.4a.87.87,0,0,1-.63.21A.69.69,0,0,1,61.86,179.9Z" style="fill:#fff"/><path d="M63.62,178.91a1.68,1.68,0,1,1,1.68,1.78A1.67,1.67,0,0,1,63.62,178.91Zm2.8,0a1.14,1.14,0,1,0-1.12,1.31A1.17,1.17,0,0,0,66.42,178.91Z" style="fill:#fff"/><path d="M71.93,180.61v-2.3c0-.43-.19-.7-.63-.7a1.21,1.21,0,0,0-.9.51v2.49h-.52v-2.3c0-.43-.18-.7-.63-.7a1.19,1.19,0,0,0-.89.52v2.48h-.52v-3.39h.52v.49a1.47,1.47,0,0,1,1.1-.58.87.87,0,0,1,.91.64,1.44,1.44,0,0,1,1.14-.64c.61,0,.94.35.94,1v2.45Z" style="fill:#fff"/><path d="M73.32,178.91A1.7,1.7,0,0,1,75,177.13,1.65,1.65,0,0,1,76.62,179v.14H73.87a1.2,1.2,0,0,0,1.22,1.17,1.51,1.51,0,0,0,1-.43l.25.34a1.83,1.83,0,0,1-1.35.52A1.68,1.68,0,0,1,73.32,178.91ZM75,177.57a1.13,1.13,0,0,0-1.11,1.13H76.1A1.1,1.1,0,0,0,75,177.57Z" style="fill:#fff"/><path d="M77.47,180.61v-3.39H78v.55a1.46,1.46,0,0,1,1.14-.62v.54l-.22,0a1.24,1.24,0,0,0-.92.54v2.4Z" style="fill:#fff"/><path d="M79.92,177.45l-.26-.22a1,1,0,0,0,.46-.65H80a.33.33,0,0,1-.34-.35.37.37,0,0,1,.37-.38.47.47,0,0,1,.45.53A1.36,1.36,0,0,1,79.92,177.45Z" style="fill:#fff"/><path d="M81.11,180.16l.27-.38a1.56,1.56,0,0,0,1.12.49c.52,0,.8-.25.8-.59,0-.82-2.1-.31-2.1-1.57,0-.53.46-1,1.26-1a1.69,1.69,0,0,1,1.26.5l-.25.36a1.33,1.33,0,0,0-1-.43c-.46,0-.75.23-.75.54,0,.74,2.1.25,2.1,1.57,0,.57-.46,1-1.33,1A1.77,1.77,0,0,1,81.11,180.16Z" style="fill:#fff"/><path d="M56.16,186.9v-4.68h2.08a1.18,1.18,0,0,1,1.32,1.19,1.07,1.07,0,0,1-.82,1.07,1.18,1.18,0,0,1,.91,1.15,1.22,1.22,0,0,1-1.36,1.27ZM59,183.49a.73.73,0,0,0-.8-.75H56.74v1.5h1.41A.72.72,0,0,0,59,183.49Zm.09,2.08a.79.79,0,0,0-.87-.81H56.74v1.62h1.43A.77.77,0,0,0,59,185.57Z" style="fill:#fff"/><path d="M62.68,186.9v-.39a1.47,1.47,0,0,1-1.13.47,1.12,1.12,0,0,1-1.18-1.12,1.11,1.11,0,0,1,1.18-1.12,1.42,1.42,0,0,1,1.13.47v-.61c0-.46-.37-.72-.86-.72a1.35,1.35,0,0,0-1,.47l-.24-.37a1.79,1.79,0,0,1,1.35-.56c.72,0,1.31.33,1.31,1.15v2.33Zm0-.72v-.64a1.15,1.15,0,0,0-.94-.42.74.74,0,1,0,0,1.48A1.15,1.15,0,0,0,62.68,186.18Z" style="fill:#fff"/><path d="M66.55,186.9v-2.22c0-.6-.3-.79-.76-.79a1.31,1.31,0,0,0-1,.53v2.48h-.53v-3.39h.53V184a1.68,1.68,0,0,1,1.2-.58,1,1,0,0,1,1.08,1.1v2.38Z" style="fill:#fff"/><path d="M70.44,186.9l-1.22-1.53-.56.56v1h-.53v-4.68h.53v3.09l1.78-1.8h.67L69.61,185l1.5,1.86Z" style="fill:#fff"/><path d="M76.92,186.9l-.42-1H74.17l-.41,1h-.67L75,182.22h.73l1.88,4.68Zm-1.58-4.08-1,2.52h2Z" style="fill:#fff"/><g style="clip-path:url(#clip-path)"><path d="M39.67,30.92a27,27,0,1,0,27-27,27,27,0,0,0-27,27" style="fill:#6e79b9"/><path d="M134.48,100.05a27,27,0,1,0,27-27,27,27,0,0,0-27,27" style="fill:#424392"/><path d="M229.3,167a27,27,0,1,0,27-27,27,27,0,0,0-27,27" style="fill:#6e79b9"/><path d="M66.63,28.14c-3,0-8.93,1.5-8.93,4.47v2.23H75.57V32.61c0-3-5.95-4.47-8.94-4.47m0-2.23a4.47,4.47,0,1,0-4.46-4.47,4.47,4.47,0,0,0,4.46,4.47" style="fill:#fff"/></g><path d="M256.17,153.12l-8.08,4.26v1.7h16.16v-1.7ZM260,166.74h2.55v-6H260ZM248.09,171h16.16v-2.55H248.09Zm6.81-4.25h2.55v-6H254.9Zm-5.11,0h2.55v-6h-2.55Z" style="fill:#fff"/><line x1="133.45" y1="79" x2="94.41" y2="50.71" style="fill:none;stroke:#424392;stroke-miterlimit:10;stroke-width:3px"/><polygon points="137.07 82 133.98 76.9 133.69 79.49 131.29 80.52 137.07 82" style="fill:#424392"/><polygon points="90.78 47.71 96.56 49.18 94.17 50.22 93.88 52.8 90.78 47.71" style="fill:#424392"/><line x1="92.14" y1="147.03" x2="132.98" y2="119.88" style="fill:none;stroke:#424392;stroke-miterlimit:10;stroke-width:3px"/><polygon points="88.46 149.93 94.29 148.67 91.94 147.55 91.74 144.95 88.46 149.93" style="fill:#424392"/><polygon points="136.66 116.99 133.38 121.96 133.19 119.36 130.83 118.24 136.66 116.99" style="fill:#424392"/><path d="M52,42a2.34,2.34,0,0,1,2.41-2.42,2.1,2.1,0,0,1,1.78.93l-.5.27a1.57,1.57,0,0,0-1.28-.68,1.91,1.91,0,0,0,0,3.81,1.56,1.56,0,0,0,1.28-.69l.5.28a2.11,2.11,0,0,1-1.78.92A2.34,2.34,0,0,1,52,42Z" style="fill:#fff"/><path d="M59.24,44.36v-.48a1.64,1.64,0,0,1-1.21.56A1,1,0,0,1,57,43.36V41h.53V43.2c0,.6.3.77.75.77a1.29,1.29,0,0,0,1-.51V41h.52v3.39Z" style="fill:#fff"/><path d="M60.53,43.91l.27-.38a1.53,1.53,0,0,0,1.12.49c.52,0,.8-.25.8-.59,0-.82-2.1-.31-2.1-1.57,0-.53.45-1,1.26-1a1.7,1.7,0,0,1,1.26.49l-.25.36a1.33,1.33,0,0,0-1-.43c-.46,0-.75.24-.75.54,0,.74,2.1.25,2.1,1.57,0,.57-.46,1-1.33,1A1.77,1.77,0,0,1,60.53,43.91Z" style="fill:#fff"/><path d="M64.19,43.65V41.43h-.56V41h.56V40h.53V41h.69v.46h-.69v2.11c0,.25.11.43.34.43a.5.5,0,0,0,.36-.14l.16.4a.92.92,0,0,1-.64.21A.69.69,0,0,1,64.19,43.65Z" style="fill:#fff"/><path d="M66,42.66a1.68,1.68,0,1,1,1.67,1.78A1.65,1.65,0,0,1,66,42.66Zm2.8,0A1.14,1.14,0,1,0,67.63,44,1.17,1.17,0,0,0,68.76,42.66Z" style="fill:#fff"/><path d="M74.26,44.36v-2.3c0-.43-.19-.7-.62-.7a1.19,1.19,0,0,0-.9.52v2.48h-.53v-2.3c0-.43-.18-.7-.62-.7a1.19,1.19,0,0,0-.89.52v2.48h-.53V41h.53v.49a1.44,1.44,0,0,1,1.09-.57.88.88,0,0,1,.92.63,1.41,1.41,0,0,1,1.13-.63c.62,0,1,.34,1,1v2.45Z" style="fill:#fff"/><path d="M75.65,42.66a1.69,1.69,0,0,1,1.67-1.77A1.64,1.64,0,0,1,79,42.7v.14H76.21A1.19,1.19,0,0,0,77.43,44a1.48,1.48,0,0,0,1-.43l.26.35a1.88,1.88,0,0,1-1.35.51A1.68,1.68,0,0,1,75.65,42.66Zm1.67-1.34a1.12,1.12,0,0,0-1.11,1.13h2.22A1.1,1.1,0,0,0,77.32,41.32Z" style="fill:#fff"/><path d="M79.8,44.36V41h.53v.55a1.44,1.44,0,0,1,1.13-.62v.54l-.21,0a1.25,1.25,0,0,0-.92.54v2.4Z" style="fill:#fff"/><path d="M239.32,178.27a2.35,2.35,0,0,1,2.41-2.42,2.09,2.09,0,0,1,1.77.93l-.49.27a1.59,1.59,0,0,0-1.28-.68,1.91,1.91,0,0,0,0,3.81,1.56,1.56,0,0,0,1.28-.68l.5.27a2.13,2.13,0,0,1-1.78.93A2.35,2.35,0,0,1,239.32,178.27Z" style="fill:#fff"/><path d="M246.52,180.61v-.48a1.64,1.64,0,0,1-1.2.57,1,1,0,0,1-1.08-1.08v-2.4h.52v2.23c0,.6.3.78.76.78a1.27,1.27,0,0,0,1-.52v-2.49h.53v3.39Z" style="fill:#fff"/><path d="M247.81,180.16l.28-.38a1.52,1.52,0,0,0,1.11.49c.52,0,.8-.25.8-.58,0-.83-2.1-.32-2.1-1.58,0-.52.46-1,1.27-1a1.72,1.72,0,0,1,1.25.49l-.24.36a1.35,1.35,0,0,0-1-.42c-.47,0-.75.23-.75.53,0,.74,2.09.25,2.09,1.57,0,.57-.45,1-1.33,1A1.81,1.81,0,0,1,247.81,180.16Z" style="fill:#fff"/><path d="M251.48,179.9v-2.21h-.56v-.47h.56v-.92H252v.92h.68v.47H252v2.1c0,.25.11.44.34.44a.54.54,0,0,0,.36-.14l.15.39a.83.83,0,0,1-.63.22C251.73,180.7,251.48,180.41,251.48,179.9Z" style="fill:#fff"/><path d="M253.24,178.91a1.68,1.68,0,1,1,1.68,1.79A1.66,1.66,0,0,1,253.24,178.91Zm2.8,0a1.14,1.14,0,1,0-2.25,0,1.14,1.14,0,1,0,2.25,0Z" style="fill:#fff"/><path d="M261.55,180.61v-2.3c0-.43-.19-.7-.62-.7a1.16,1.16,0,0,0-.9.52v2.48h-.53v-2.3c0-.43-.18-.7-.62-.7a1.21,1.21,0,0,0-.9.52v2.48h-.52v-3.39H258v.49a1.51,1.51,0,0,1,1.1-.57.87.87,0,0,1,.91.63,1.43,1.43,0,0,1,1.14-.63c.62,0,.95.34.95,1v2.45Z" style="fill:#fff"/><path d="M262.94,178.91a1.69,1.69,0,0,1,1.67-1.77,1.65,1.65,0,0,1,1.63,1.82v.13h-2.75a1.2,1.2,0,0,0,1.22,1.17,1.47,1.47,0,0,0,1.05-.43l.25.35a1.85,1.85,0,0,1-1.34.52A1.69,1.69,0,0,1,262.94,178.91Zm1.66-1.34a1.13,1.13,0,0,0-1.11,1.13h2.23A1.11,1.11,0,0,0,264.6,177.57Z" style="fill:#fff"/><path d="M267.09,180.61v-3.39h.53v.55a1.42,1.42,0,0,1,1.13-.62v.54l-.21,0a1.23,1.23,0,0,0-.92.54v2.4Z" style="fill:#fff"/><path d="M269.54,177.45l-.26-.21a1.07,1.07,0,0,0,.46-.66l-.1,0a.33.33,0,0,1-.33-.36.38.38,0,0,1,.37-.38.47.47,0,0,1,.44.53A1.33,1.33,0,0,1,269.54,177.45Z" style="fill:#fff"/><path d="M270.73,180.16l.28-.38a1.52,1.52,0,0,0,1.11.49c.52,0,.8-.25.8-.58,0-.83-2.1-.32-2.1-1.58,0-.52.46-1,1.27-1a1.72,1.72,0,0,1,1.25.49l-.24.36a1.35,1.35,0,0,0-1-.42c-.47,0-.75.23-.75.53,0,.74,2.09.25,2.09,1.57,0,.57-.45,1-1.33,1A1.81,1.81,0,0,1,270.73,180.16Z" style="fill:#fff"/><path d="M245.72,186.9v-4.68h2.08a1.18,1.18,0,0,1,1.32,1.19,1.06,1.06,0,0,1-.83,1.07,1.18,1.18,0,0,1,.92,1.16,1.22,1.22,0,0,1-1.36,1.26Zm2.79-3.41a.73.73,0,0,0-.8-.75H246.3v1.51h1.41A.73.73,0,0,0,248.51,183.49Zm.09,2.08a.79.79,0,0,0-.87-.8H246.3v1.61h1.43A.77.77,0,0,0,248.6,185.57Z" style="fill:#fff"/><path d="M252.24,186.9v-.39a1.47,1.47,0,0,1-1.13.47,1.12,1.12,0,0,1-1.18-1.12,1.11,1.11,0,0,1,1.18-1.12,1.42,1.42,0,0,1,1.13.47v-.61c0-.46-.37-.72-.86-.72a1.35,1.35,0,0,0-1,.47l-.24-.36a1.77,1.77,0,0,1,1.35-.57c.72,0,1.31.33,1.31,1.15v2.33Zm0-.72v-.64a1.15,1.15,0,0,0-.94-.42.76.76,0,0,0-.83.75.75.75,0,0,0,.83.73A1.15,1.15,0,0,0,252.24,186.18Z" style="fill:#fff"/><path d="M256.11,186.9v-2.22c0-.6-.3-.78-.76-.78a1.3,1.3,0,0,0-1,.52v2.48h-.53v-3.39h.53V184a1.66,1.66,0,0,1,1.2-.58,1,1,0,0,1,1.08,1.1v2.38Z" style="fill:#fff"/><path d="M260,186.9l-1.22-1.52-.56.55v1h-.53v-4.68h.53v3.09l1.78-1.8h.67l-1.51,1.54,1.51,1.85Z" style="fill:#fff"/><path d="M263,184.56a2.34,2.34,0,0,1,2.4-2.42,2.09,2.09,0,0,1,1.78.93l-.49.27a1.59,1.59,0,0,0-1.29-.68,1.9,1.9,0,0,0,0,3.8,1.57,1.57,0,0,0,1.29-.68l.5.28a2.14,2.14,0,0,1-1.79.92A2.34,2.34,0,0,1,263,184.56Z" style="fill:#fff"/><g style="clip-path:url(#clip-path)"><path d="M134.61,206.25a27,27,0,1,0,27-27,27,27,0,0,0-27,27" style="fill:#6e79b9"/></g><path d="M161.49,192.34l-8.08,4.26v1.7h16.16v-1.7ZM165.32,206h2.55v-6h-2.55Zm-11.91,4.25h16.16v-2.55H153.41Zm6.8-4.25h2.56v-6h-2.56Zm-5.1,0h2.55v-6h-2.55Z" style="fill:#fff"/><path d="M144.63,217.49a2.34,2.34,0,0,1,2.41-2.42,2.1,2.1,0,0,1,1.78.93l-.49.27a1.61,1.61,0,0,0-1.29-.68,1.9,1.9,0,0,0,0,3.8,1.58,1.58,0,0,0,1.29-.68l.49.28a2.11,2.11,0,0,1-1.78.92A2.34,2.34,0,0,1,144.63,217.49Z" style="fill:#fff"/><path d="M151.84,219.83v-.48a1.64,1.64,0,0,1-1.21.56,1,1,0,0,1-1.08-1.08v-2.39h.53v2.23c0,.6.3.77.76.77a1.31,1.31,0,0,0,1-.51v-2.49h.53v3.39Z" style="fill:#fff"/><path d="M153.13,219.38l.27-.38a1.55,1.55,0,0,0,1.12.49c.52,0,.8-.25.8-.59,0-.82-2.1-.31-2.1-1.57,0-.53.46-1,1.26-1a1.69,1.69,0,0,1,1.26.5l-.25.36a1.33,1.33,0,0,0-1-.43c-.46,0-.75.23-.75.54,0,.74,2.1.25,2.1,1.57,0,.57-.46,1-1.33,1A1.81,1.81,0,0,1,153.13,219.38Z" style="fill:#fff"/><path d="M156.8,219.12V216.9h-.57v-.46h.57v-.93h.52v.93H158v.46h-.69V219c0,.25.11.43.35.43a.49.49,0,0,0,.35-.14l.16.4a.89.89,0,0,1-.63.21A.69.69,0,0,1,156.8,219.12Z" style="fill:#fff"/><path d="M158.56,218.13a1.68,1.68,0,1,1,1.68,1.78A1.67,1.67,0,0,1,158.56,218.13Zm2.8,0a1.14,1.14,0,1,0-1.12,1.31A1.18,1.18,0,0,0,161.36,218.13Z" style="fill:#fff"/><path d="M166.87,219.83v-2.3c0-.43-.19-.71-.63-.71a1.22,1.22,0,0,0-.9.52v2.49h-.52v-2.3c0-.43-.19-.71-.63-.71a1.2,1.2,0,0,0-.89.53v2.48h-.53v-3.39h.53v.49a1.47,1.47,0,0,1,1.1-.58.88.88,0,0,1,.91.64,1.42,1.42,0,0,1,1.13-.64c.62,0,.95.35.95,1v2.45Z" style="fill:#fff"/><path d="M168.25,218.13a1.71,1.71,0,0,1,1.67-1.78,1.65,1.65,0,0,1,1.63,1.82v.14h-2.74a1.2,1.2,0,0,0,1.22,1.17,1.51,1.51,0,0,0,1.05-.43l.25.34a1.83,1.83,0,0,1-1.35.52A1.68,1.68,0,0,1,168.25,218.13Zm1.67-1.34a1.13,1.13,0,0,0-1.11,1.13H171A1.09,1.09,0,0,0,169.92,216.79Z" style="fill:#fff"/><path d="M172.41,219.83v-3.39h.52V217a1.45,1.45,0,0,1,1.13-.62v.54l-.21,0a1.27,1.27,0,0,0-.92.54v2.4Z" style="fill:#fff"/><path d="M174.86,216.67l-.26-.22a1.09,1.09,0,0,0,.46-.65H175a.33.33,0,0,1-.34-.35.37.37,0,0,1,.37-.38.47.47,0,0,1,.44.53A1.35,1.35,0,0,1,174.86,216.67Z" style="fill:#fff"/><path d="M176.05,219.38l.27-.38a1.55,1.55,0,0,0,1.12.49c.52,0,.8-.25.8-.59,0-.82-2.1-.31-2.1-1.57,0-.53.45-1,1.26-1a1.71,1.71,0,0,1,1.26.5l-.25.36a1.33,1.33,0,0,0-1-.43c-.46,0-.75.23-.75.54,0,.74,2.1.25,2.1,1.57,0,.57-.46,1-1.33,1A1.81,1.81,0,0,1,176.05,219.38Z" style="fill:#fff"/><path d="M151.2,226.12v-4.69h2.09a1.19,1.19,0,0,1,1.31,1.2,1.06,1.06,0,0,1-.82,1.07,1.17,1.17,0,0,1,.91,1.15,1.22,1.22,0,0,1-1.35,1.27Zm2.8-3.41a.74.74,0,0,0-.81-.76h-1.4v1.51h1.4A.73.73,0,0,0,154,222.71Zm.09,2.08a.8.8,0,0,0-.87-.81h-1.43v1.62h1.43A.77.77,0,0,0,154.09,224.79Z" style="fill:#fff"/><path d="M157.72,226.12v-.39a1.46,1.46,0,0,1-1.12.47,1.13,1.13,0,0,1-1.19-1.12A1.11,1.11,0,0,1,156.6,224a1.43,1.43,0,0,1,1.12.46v-.61c0-.45-.36-.71-.86-.71a1.31,1.31,0,0,0-1,.47l-.25-.37a1.77,1.77,0,0,1,1.36-.56c.71,0,1.31.32,1.31,1.15v2.33Zm0-.72v-.64a1.13,1.13,0,0,0-.93-.42.75.75,0,1,0,0,1.48A1.13,1.13,0,0,0,157.72,225.4Z" style="fill:#fff"/><path d="M161.59,226.12V223.9c0-.6-.3-.79-.76-.79a1.3,1.3,0,0,0-1,.53v2.48h-.53v-3.39h.53v.49a1.69,1.69,0,0,1,1.21-.58,1,1,0,0,1,1.08,1.1v2.38Z" style="fill:#fff"/><path d="M165.48,226.12l-1.22-1.53-.56.56v1h-.52v-4.69h.52v3.1l1.78-1.8h.67l-1.5,1.53,1.51,1.86Z" style="fill:#fff"/><path d="M168.62,226.12v-4.69h2.08a1.19,1.19,0,0,1,1.32,1.2,1.07,1.07,0,0,1-.82,1.07,1.18,1.18,0,0,1,.91,1.15,1.23,1.23,0,0,1-1.36,1.27Zm2.79-3.41a.74.74,0,0,0-.8-.76H169.2v1.51h1.41A.72.72,0,0,0,171.41,222.71Zm.1,2.08a.8.8,0,0,0-.88-.81H169.2v1.62h1.43A.78.78,0,0,0,171.51,224.79Z" style="fill:#fff"/><line x1="225.67" y1="150.13" x2="186.63" y2="121.84" style="fill:none;stroke:#424392;stroke-miterlimit:10;stroke-width:3px"/><polygon points="229.29 153.12 226.2 148.03 225.91 150.62 223.52 151.65 229.29 153.12" style="fill:#424392"/><polygon points="183.01 118.84 188.79 120.31 186.39 121.34 186.1 123.93 183.01 118.84" style="fill:#424392"/><line x1="161.47" y1="134.41" x2="161.47" y2="172.41" style="fill:none;stroke:#424392;stroke-miterlimit:10;stroke-width:3px"/><polygon points="161.57 130.5 159.32 136.02 161.57 134.71 163.83 136.02 161.57 130.5" style="fill:#424392"/><polygon points="161.57 176.33 159.32 170.81 161.57 172.12 163.83 170.81 161.57 176.33" style="fill:#424392"/><g style="clip-path:url(#clip-path)"><path d="M28.67,10.35A157.12,157.12,0,0,0,3.58,91.48" style="fill:none;stroke:#2c6a9d;stroke-miterlimit:10;stroke-width:2px;stroke-dasharray:4.810999870300293,4.810999870300293"/><path d="M3.67,102.78a157.94,157.94,0,0,0,153.18,151" style="fill:none;stroke:#2c6a9d;stroke-miterlimit:10;stroke-width:2px;stroke-dasharray:5.013000011444092,5.013000011444092"/><path d="M168.5,253.66a157.58,157.58,0,0,0,113-55.22" style="fill:none;stroke:#2c6a9d;stroke-miterlimit:10;stroke-width:2px;stroke-dasharray:5.133999824523926,5.133999824523926"/><path d="M283.06,196.64c.5-.6,1-1.21,1.48-1.82m-125.39,59h2.3c.78,0,1.56,0,2.35,0M3.54,93.69c0,.73,0,1.46,0,2.2s0,1.53,0,2.3M32.38,4.87c-.43.6-.85,1.2-1.26,1.81" style="fill:none;stroke:#2c6a9d;stroke-miterlimit:10;stroke-width:2px"/></g><line x1="40.01" y1="187.41" x2="35.2" y2="190.18" style="fill:none;stroke:#2c6a9d;stroke-miterlimit:10;stroke-width:2px;stroke-dasharray:2.0169999599456787,2.0169999599456787"/><polygon points="42.38 185.41 38.51 186.31 40.09 187.03 40.25 188.76 42.38 185.41" style="fill:#2c6a9d"/><g style="clip-path:url(#clip-path)"><line x1="45.48" y1="14.22" x2="31.95" y2="4.64" style="fill:none;stroke:#2c6a9d;stroke-miterlimit:10;stroke-width:2px;stroke-dasharray:6.03000020980835,6.03000020980835"/><line x1="284.77" y1="194.26" x2="277.72" y2="189.54" style="fill:none;stroke:#2c6a9d;stroke-miterlimit:10;stroke-width:2px;stroke-dasharray:3.0829999446868896,3.0829999446868896"/></g><polygon points="275.33 187.53 279.19 188.51 277.59 189.19 277.4 190.92 275.33 187.53" style="fill:#2c6a9d"/><g style="clip-path:url(#clip-path)"><line x1="161.51" y1="235.82" x2="161.51" y2="254.36" style="fill:none;stroke:#2c6a9d;stroke-miterlimit:10;stroke-width:2px;stroke-dasharray:4.046000003814697,4.046000003814697"/></g><polygon points="161.57 233.21 160.07 236.88 161.57 236.01 163.08 236.88 161.57 233.21" style="fill:#2c6a9d"/><path d="M155.17,106.19l-.79-2H150l-.79,2h-1.26l3.56-8.88h1.37l3.58,8.88Zm-3-7.73-1.89,4.77h3.77Z" style="fill:#fff"/><path d="M157.59,106.19V97.31h1.11v8.88Z" style="fill:#fff"/><path d="M160.24,104.94l.65-.84a3.78,3.78,0,0,0,2.8,1.26c1.58,0,2.09-.85,2.09-1.53,0-2.29-5.26-1-5.26-4.19,0-1.46,1.31-2.46,3-2.46a4.14,4.14,0,0,1,3.15,1.24l-.66.81a3.42,3.42,0,0,0-2.57-1.07c-1.07,0-1.82.58-1.82,1.42,0,2,5.25.85,5.25,4.16,0,1.29-.88,2.61-3.27,2.61A4.42,4.42,0,0,1,160.24,104.94Z" style="fill:#fff"/><path d="M168.58,106.19V97.31h3.56a2.68,2.68,0,1,1,0,5.35h-2.46v3.53Zm5.2-6.2A1.65,1.65,0,0,0,172,98.3h-2.33v3.38H172A1.65,1.65,0,0,0,173.78,100Z" style="fill:#fff"/></svg>