<svg id="Layer_1" data-name="Layer 1" xmlns="http://www.w3.org/2000/svg" xmlns:xlink="http://www.w3.org/1999/xlink" viewBox="0 0 287.67 292.02"><defs><clipPath id="clip-path"><rect x="2.19" y="5.31" width="284.02" height="282.02" style="fill:none"/></clipPath></defs><title>PISP-diagram</title><g style="clip-path:url(#clip-path)"><path d="M60.49,251a135.69,135.69,0,0,0,29.9,17" style="fill:none;stroke:#2c6a9d;stroke-miterlimit:10;stroke-width:2px;stroke-dasharray:4.923999786376953,4.923999786376953"/></g><polygon points="56.84 247.82 60 253.49 60.42 250.68 63.06 249.65 56.84 247.82" style="fill:#2c6a9d"/><polygon points="94.55 270.06 88.06 270.03 90.32 268.31 89.94 265.49 94.55 270.06" style="fill:#2c6a9d"/><g style="clip-path:url(#clip-path)"><path d="M197.88,268a135.33,135.33,0,0,0,32.18-18.74" style="fill:none;stroke:#2c6a9d;stroke-miterlimit:10;stroke-width:2px;stroke-dasharray:5.336999893188477,5.336999893188477"/></g><polygon points="193.72 270.11 200.21 270.08 197.96 268.36 198.33 265.55 193.72 270.11" style="fill:#2c6a9d"/><polygon points="233.67 246.04 230.61 251.76 230.15 248.96 227.48 247.98 233.67 246.04" style="fill:#2c6a9d"/><g style="clip-path:url(#clip-path)"><path d="M275.56,181.32a154.48,154.48,0,0,0,4.81-34.17" style="fill:none;stroke:#2c6a9d;stroke-miterlimit:10;stroke-width:2px;stroke-dasharray:4.610000133514404,4.610000133514404"/><path d="M280.27,135.3a153.2,153.2,0,0,0-5.84-35.67" style="fill:none;stroke:#2c6a9d;stroke-miterlimit:10;stroke-width:2px;stroke-dasharray:4.830999851226807,4.830999851226807"/><path d="M273.74,97.31c-.24-.77-.48-1.54-.73-2.3m7.41,49.84c0-.77,0-1.54,0-2.31s0-1.61,0-2.41M273.68,188l.66-2.21" style="fill:none;stroke:#2c6a9d;stroke-miterlimit:10;stroke-width:2px"/></g><polygon points="271.75 192.12 276.1 187.31 273.31 187.81 271.49 185.63 271.75 192.12" style="fill:#2c6a9d"/><polygon points="270.92 90.88 275.35 95.62 272.55 95.16 270.76 97.36 270.92 90.88" style="fill:#2c6a9d"/><g style="clip-path:url(#clip-path)"><path d="M223.43,31A138.05,138.05,0,0,0,149.31,6.4" style="fill:none;stroke:#2c6a9d;stroke-miterlimit:10;stroke-width:2px;stroke-dasharray:5.107999801635742,5.107999801635742"/><path d="M137.07,6.48a138,138,0,0,0-77,28.09" style="fill:none;stroke:#2c6a9d;stroke-miterlimit:10;stroke-width:2px;stroke-dasharray:4.755000114440918,4.755000114440918"/><path d="M58.2,36c-.62.5-1.24,1-1.85,1.5m90.41-31.2c-.85,0-1.7,0-2.56,0s-1.58,0-2.37,0m87.76,29.22c-.67-.53-1.35-1-2-1.56" style="fill:none;stroke:#2c6a9d;stroke-miterlimit:10;stroke-width:2px"/></g><polygon points="230.01 33.15 229.34 35.48 227.19 36.61 232.71 38.22 230.01 33.15" style="fill:#2c6a9d"/><g style="clip-path:url(#clip-path)"><path d="M2.19,223.17a31.45,31.45,0,1,0,31.44-31.45A31.44,31.44,0,0,0,2.19,223.17" style="fill:#77b5e4"/></g><path d="M33.63,204.43l-9.42,5v2H43.06v-2Zm4.47,15.88h3v-6.95h-3Zm-13.89,5H43.06v-3H24.21Zm7.94-5h3v-6.95h-3Zm-6,0h3v-6.95h-3Z" style="fill:#fff"/><path d="M13.41,236.37v-5.46h.68v5.46Z" style="fill:#fff"/><path d="M15,235.85l.32-.44a1.79,1.79,0,0,0,1.3.56c.61,0,.94-.29.94-.68,0-1-2.45-.37-2.45-1.83,0-.62.53-1.14,1.47-1.14a2,2,0,0,1,1.47.57l-.29.43a1.52,1.52,0,0,0-1.18-.5c-.54,0-.87.27-.87.62,0,.87,2.45.29,2.45,1.84,0,.66-.54,1.19-1.56,1.19A2.12,2.12,0,0,1,15,235.85Z" style="fill:#fff"/><path d="M18.81,235.85l.32-.44a1.79,1.79,0,0,0,1.3.56c.61,0,.94-.29.94-.68,0-1-2.45-.37-2.45-1.83,0-.62.53-1.14,1.47-1.14a2,2,0,0,1,1.47.57l-.29.43a1.52,1.52,0,0,0-1.18-.5c-.54,0-.87.27-.87.62,0,.87,2.45.29,2.45,1.84,0,.66-.54,1.19-1.56,1.19A2.12,2.12,0,0,1,18.81,235.85Z" style="fill:#fff"/><path d="M25.64,236.37v-.55a2,2,0,0,1-1.41.65A1.11,1.11,0,0,1,23,235.21v-2.79h.61V235c0,.7.35.9.89.9a1.52,1.52,0,0,0,1.17-.6v-2.9h.61v4Z" style="fill:#fff"/><path d="M27.25,234.39a2,2,0,0,1,1.95-2.07,1.92,1.92,0,0,1,1.9,2.12v.15H27.9A1.39,1.39,0,0,0,29.32,236a1.77,1.77,0,0,0,1.23-.5l.29.41a2.16,2.16,0,0,1-1.57.6A2,2,0,0,1,27.25,234.39Zm1.94-1.56a1.31,1.31,0,0,0-1.29,1.31h2.6A1.28,1.28,0,0,0,29.19,232.83Z" style="fill:#fff"/><path d="M32.09,236.37v-4h.62v.63a1.71,1.71,0,0,1,1.32-.72V233l-.25,0a1.43,1.43,0,0,0-1.07.63v2.8Z" style="fill:#fff"/><path d="M36.94,236.37v-5.46h2.43a1.37,1.37,0,0,1,1.53,1.39,1.23,1.23,0,0,1-1,1.25A1.37,1.37,0,0,1,41,234.9a1.42,1.42,0,0,1-1.58,1.47Zm3.26-4a.87.87,0,0,0-1-.89H37.62v1.77h1.63A.85.85,0,0,0,40.2,232.4Zm.1,2.42a.92.92,0,0,0-1-.94H37.62v1.89h1.67A.9.9,0,0,0,40.3,234.82Z" style="fill:#fff"/><path d="M44.54,236.37v-.45a1.72,1.72,0,0,1-1.31.55,1.32,1.32,0,0,1-1.39-1.31,1.3,1.3,0,0,1,1.39-1.3,1.65,1.65,0,0,1,1.31.54v-.71c0-.54-.43-.84-1-.84a1.55,1.55,0,0,0-1.21.55L42,233a2.07,2.07,0,0,1,1.58-.65c.84,0,1.53.37,1.53,1.33v2.72Zm0-.83v-.75a1.33,1.33,0,0,0-1.09-.49.87.87,0,1,0,0,1.73A1.33,1.33,0,0,0,44.54,235.54Z" style="fill:#fff"/><path d="M49.05,236.37v-2.59c0-.69-.35-.91-.88-.91a1.53,1.53,0,0,0-1.17.61v2.89h-.62v-4H47V233a2,2,0,0,1,1.41-.67,1.13,1.13,0,0,1,1.26,1.28v2.77Z" style="fill:#fff"/><path d="M53.59,236.37l-1.42-1.78-.66.65v1.13H50.9v-5.46h.61v3.61l2.08-2.1h.78l-1.75,1.79,1.76,2.16Z" style="fill:#fff"/><g style="clip-path:url(#clip-path)"><path d="M2.19,61.92A31.45,31.45,0,1,0,33.63,30.48,31.44,31.44,0,0,0,2.19,61.92" style="fill:#77b5e4"/><path d="M112.76,142.54A31.44,31.44,0,1,0,144.2,111.1a31.44,31.44,0,0,0-31.44,31.44" style="fill:#0f3451"/><path d="M223.23,61.92a31.45,31.45,0,1,0,31.44-31.44,31.44,31.44,0,0,0-31.44,31.44" style="fill:#77b5e4"/><path d="M223.33,220.65a31.44,31.44,0,1,0,31.44-31.45,31.44,31.44,0,0,0-31.44,31.45" style="fill:#77b5e4"/><path d="M33.63,58.68c-3.47,0-10.42,1.74-10.42,5.21v2.6H44.05v-2.6c0-3.47-6.94-5.21-10.42-5.21m0-2.61a5.21,5.21,0,1,0-5.21-5.21,5.21,5.21,0,0,0,5.21,5.21" style="fill:#fff"/><path d="M178.48,287.32H109.92a13.58,13.58,0,0,1,0-27.16h68.56a13.58,13.58,0,1,1,0,27.16" style="fill:#77b5e4"/></g><path d="M119.71,274.16a2.74,2.74,0,0,1,2.81-2.83,2.42,2.42,0,0,1,2.07,1.08l-.57.32a1.85,1.85,0,0,0-1.5-.8,2.23,2.23,0,0,0,0,4.45,1.82,1.82,0,0,0,1.5-.8l.58.32a2.47,2.47,0,0,1-2.08,1.08A2.74,2.74,0,0,1,119.71,274.16Z" style="fill:#fff"/><path d="M127.92,276.88v-.45a1.72,1.72,0,0,1-1.31.55,1.32,1.32,0,0,1-1.39-1.31,1.3,1.3,0,0,1,1.39-1.3,1.65,1.65,0,0,1,1.31.54v-.71c0-.54-.43-.84-1-.84a1.55,1.55,0,0,0-1.21.55l-.29-.43a2.07,2.07,0,0,1,1.58-.65c.84,0,1.53.38,1.53,1.33v2.72Zm0-.83v-.75a1.33,1.33,0,0,0-1.09-.49.87.87,0,1,0,0,1.73A1.33,1.33,0,0,0,127.92,276.05Z" style="fill:#fff"/><path d="M129.76,276.88v-3.95h.62v.64a1.67,1.67,0,0,1,1.32-.73v.64a1,1,0,0,0-.25,0,1.43,1.43,0,0,0-1.07.63v2.8Z" style="fill:#fff"/><path d="M135.33,276.88v-.59A1.62,1.62,0,0,1,134,277c-1,0-1.76-.78-1.76-2.07s.72-2.08,1.76-2.08a1.65,1.65,0,0,1,1.33.69v-2.1H136v5.46Zm0-1.07V274a1.46,1.46,0,0,0-1.18-.64c-.8,0-1.27.65-1.27,1.53s.47,1.52,1.27,1.52A1.47,1.47,0,0,0,135.33,275.81Z" style="fill:#fff"/><path d="M143.18,276.88,140,272.52v4.36h-.68v-5.46H140l3.15,4.27v-4.27h.68v5.46Z" style="fill:#fff"/><path d="M144.86,274.9a2,2,0,0,1,1.95-2.07,1.92,1.92,0,0,1,1.9,2.12v.16h-3.2a1.39,1.39,0,0,0,1.43,1.36,1.72,1.72,0,0,0,1.22-.5l.29.41a2.14,2.14,0,0,1-1.57.6A2,2,0,0,1,144.86,274.9Zm1.94-1.56a1.32,1.32,0,0,0-1.29,1.32h2.6A1.29,1.29,0,0,0,146.8,273.34Z" style="fill:#fff"/><path d="M149.83,276.06v-2.59h-.66v-.54h.66v-1.09h.61v1.09h.81v.54h-.81v2.45c0,.3.13.51.4.51a.58.58,0,0,0,.42-.16l.18.46a1,1,0,0,1-.74.25A.8.8,0,0,1,149.83,276.06Z" style="fill:#fff"/><path d="M155.54,276.88l-1-3.18-1,3.18h-.61l-1.26-3.95h.64l1,3.15,1-3.15h.53l1,3.15,1-3.15h.64l-1.27,3.95Z" style="fill:#fff"/><path d="M157.9,274.9a2,2,0,1,1,2,2.08A1.94,1.94,0,0,1,157.9,274.9Zm3.27,0a1.33,1.33,0,1,0-1.31,1.53A1.38,1.38,0,0,0,161.17,274.9Z" style="fill:#fff"/><path d="M162.81,276.88v-3.95h.62v.64a1.69,1.69,0,0,1,1.32-.73v.64a.9.9,0,0,0-.25,0,1.45,1.45,0,0,0-1.07.63v2.8Z" style="fill:#fff"/><path d="M168.21,276.88l-1.43-1.77-.65.64v1.13h-.62v-5.46h.62V275l2.08-2.1H169l-1.76,1.79,1.76,2.16Z" style="fill:#fff"/><path d="M244,236.38l-.49-1.22h-2.72l-.48,1.22h-.78l2.2-5.47h.84l2.21,5.47Zm-1.85-4.77L241,234.56h2.32Z" style="fill:#fff"/><path d="M245.19,234.39a2,2,0,0,1,2-2.07,1.68,1.68,0,0,1,1.45.69l-.41.37a1.17,1.17,0,0,0-1-.51,1.53,1.53,0,0,0,0,3,1.19,1.19,0,0,0,1-.51l.41.38a1.69,1.69,0,0,1-1.45.68A2,2,0,0,1,245.19,234.39Z" style="fill:#fff"/><path d="M249.23,234.39c0-1.28.72-2.07,1.76-2.07a1.62,1.62,0,0,1,1.32.69v-.59h.62v5.46h-.62v-2.1a1.61,1.61,0,0,1-1.32.69C250,236.47,249.23,235.67,249.23,234.39Zm3.08.9V233.5a1.41,1.41,0,0,0-1.18-.63c-.79,0-1.26.65-1.26,1.52s.47,1.53,1.26,1.53A1.43,1.43,0,0,0,252.31,235.29Z" style="fill:#fff"/><path d="M256.84,236.38v-.56a2,2,0,0,1-1.41.65,1.11,1.11,0,0,1-1.26-1.26v-2.79h.61V235c0,.7.35.9.89.9a1.51,1.51,0,0,0,1.17-.59v-2.91h.61v4Z" style="fill:#fff"/><path d="M258.57,231.44a.42.42,0,1,1,.83,0,.42.42,0,0,1-.83,0Zm.11,4.94v-4h.62v4Z" style="fill:#fff"/><path d="M260.52,236.38v-4h.62v.64a1.69,1.69,0,0,1,1.32-.73V233a1,1,0,0,0-.25,0,1.45,1.45,0,0,0-1.07.63v2.81Z" style="fill:#fff"/><path d="M263,234.39a2,2,0,0,1,1.95-2.07,1.92,1.92,0,0,1,1.9,2.12v.16h-3.2a1.38,1.38,0,0,0,1.42,1.36,1.72,1.72,0,0,0,1.22-.49l.3.4a2.18,2.18,0,0,1-1.58.6A2,2,0,0,1,263,234.39Zm1.94-1.56a1.32,1.32,0,0,0-1.29,1.32h2.59A1.28,1.28,0,0,0,264.94,232.83Z" style="fill:#fff"/><path d="M267.84,236.38v-4h.62v.64a1.66,1.66,0,0,1,1.31-.73V233a.83.83,0,0,0-.24,0,1.43,1.43,0,0,0-1.07.63v2.81Z" style="fill:#fff"/><path d="M254.67,204.43l-9.42,5v2H264.1v-2Zm4.47,15.88h3v-6.95h-3Zm-13.89,5H264.1v-3H245.25Zm7.94-5h3v-6.95h-3Zm-6,0h3v-6.95h-3Z" style="fill:#fff"/><line x1="176.54" y1="118.93" x2="223.16" y2="86.09" style="fill:none;stroke:#128fcf;stroke-miterlimit:10;stroke-width:3px"/><g style="clip-path:url(#clip-path)"><path d="M177,119l-.21-2.72h-.09l-2.21,3.45-2.71,3,3.74-1.61,4-1,0-.08Z" style="fill:#128fcf"/></g><polygon points="227.35 82.72 223.66 88.61 223.36 85.59 220.59 84.35 227.35 82.72" style="fill:#128fcf"/><line x1="111.61" y1="118.07" x2="65.96" y2="84.91" style="fill:none;stroke:#128fcf;stroke-miterlimit:10;stroke-width:3px"/><polygon points="115.78 121.48 112.17 115.54 111.83 118.56 109.04 119.77 115.78 121.48" style="fill:#128fcf"/><polygon points="61.8 81.5 68.53 83.22 65.74 84.42 65.4 87.44 61.8 81.5" style="fill:#128fcf"/><line x1="63.32" y1="197.41" x2="111.06" y2="165.58" style="fill:none;stroke:#128fcf;stroke-miterlimit:10;stroke-width:3px"/><polygon points="59.09 200.7 65.88 199.24 63.14 197.93 62.92 194.9 59.09 200.7" style="fill:#128fcf"/><polygon points="115.3 162.29 111.47 168.09 111.25 165.06 108.5 163.75 115.3 162.29" style="fill:#128fcf"/><path d="M129.9,149.7V139.35h4.16a3.12,3.12,0,1,1,0,6.23h-2.88v4.12Zm6.06-7.24a1.92,1.92,0,0,0-2.06-2h-2.72v3.95h2.72A1.92,1.92,0,0,0,136,142.46Z" style="fill:#fff"/><path d="M139,149.7V139.35h1.29V149.7Z" style="fill:#fff"/><path d="M142.1,148.24l.76-1a4.37,4.37,0,0,0,3.26,1.47c1.85,0,2.44-1,2.44-1.78,0-2.67-6.14-1.2-6.14-4.89,0-1.71,1.53-2.87,3.56-2.87a4.9,4.9,0,0,1,3.68,1.44l-.78,1a4,4,0,0,0-3-1.24c-1.25,0-2.13.67-2.13,1.64,0,2.33,6.13,1,6.13,4.86,0,1.51-1,3-3.82,3A5.12,5.12,0,0,1,142.1,148.24Z" style="fill:#fff"/><path d="M151.82,149.7V139.35H156a3.12,3.12,0,1,1,0,6.23h-2.87v4.12Zm6.07-7.24a1.93,1.93,0,0,0-2.07-2h-2.71v3.95h2.71A1.93,1.93,0,0,0,157.89,142.46Z" style="fill:#fff"/><path d="M16.6,74.86A2.73,2.73,0,0,1,19.41,72a2.45,2.45,0,0,1,2.08,1.08l-.58.32a1.83,1.83,0,0,0-1.5-.8,2.22,2.22,0,0,0,0,4.44,1.8,1.8,0,0,0,1.5-.79l.59.32a2.49,2.49,0,0,1-2.09,1.08A2.74,2.74,0,0,1,16.6,74.86Z" style="fill:#fff"/><path d="M25,77.59V77a1.91,1.91,0,0,1-1.41.66,1.11,1.11,0,0,1-1.26-1.26v-2.8H23v2.61c0,.7.36.9.89.9a1.52,1.52,0,0,0,1.17-.6V73.63h.62v4Z" style="fill:#fff"/><path d="M26.51,77.07l.32-.44a1.79,1.79,0,0,0,1.3.56c.61,0,.94-.29.94-.68,0-1-2.45-.37-2.45-1.84,0-.61.53-1.13,1.47-1.13a2,2,0,0,1,1.47.57l-.29.43a1.53,1.53,0,0,0-1.18-.5c-.54,0-.88.27-.88.62,0,.87,2.45.29,2.45,1.83,0,.67-.53,1.2-1.55,1.2A2.12,2.12,0,0,1,26.51,77.07Z" style="fill:#fff"/><path d="M30.79,76.76V74.17h-.66v-.54h.66V72.55h.61v1.08h.8v.54h-.8v2.46c0,.3.13.51.4.51a.58.58,0,0,0,.42-.16l.18.46a1,1,0,0,1-.74.25C31.08,77.69,30.79,77.35,30.79,76.76Z" style="fill:#fff"/><path d="M32.84,75.61a2,2,0,1,1,2,2.08A1.94,1.94,0,0,1,32.84,75.61Zm3.27,0a1.33,1.33,0,1,0-1.31,1.53A1.38,1.38,0,0,0,36.11,75.61Z" style="fill:#fff"/><path d="M42.54,77.59V74.9c0-.5-.22-.82-.73-.82a1.39,1.39,0,0,0-1.05.61v2.9h-.62V74.9c0-.5-.21-.82-.73-.82a1.4,1.4,0,0,0-1,.62v2.89h-.61v-4h.61v.58a1.71,1.71,0,0,1,1.28-.67,1,1,0,0,1,1.07.73A1.65,1.65,0,0,1,42,73.54c.73,0,1.11.4,1.11,1.19v2.86Z" style="fill:#fff"/><path d="M44.15,75.61a2,2,0,0,1,2-2.07A1.92,1.92,0,0,1,48,75.66v.15H44.8a1.39,1.39,0,0,0,1.42,1.37,1.72,1.72,0,0,0,1.22-.5l.3.4a2.12,2.12,0,0,1-1.57.61A2,2,0,0,1,44.15,75.61ZM46.09,74a1.32,1.32,0,0,0-1.29,1.32h2.6A1.29,1.29,0,0,0,46.09,74Z" style="fill:#fff"/><path d="M49,77.59v-4h.62v.64a1.71,1.71,0,0,1,1.32-.72v.63l-.25,0a1.43,1.43,0,0,0-1.07.63v2.8Z" style="fill:#fff"/><path d="M243.2,77.59v-4.5l-1.86,4.5h-.28l-1.85-4.5v4.5h-.68V72.13h1l1.7,4.11,1.7-4.11h1v5.46Z" style="fill:#fff"/><path d="M244.9,75.61a2,2,0,0,1,1.95-2.07,1.92,1.92,0,0,1,1.9,2.12v.15h-3.2A1.39,1.39,0,0,0,247,77.18a1.72,1.72,0,0,0,1.22-.5l.29.4a2.11,2.11,0,0,1-1.57.61A2,2,0,0,1,244.9,75.61ZM246.85,74a1.32,1.32,0,0,0-1.3,1.32h2.6A1.28,1.28,0,0,0,246.85,74Z" style="fill:#fff"/><path d="M249.74,77.59v-4h.62v.64a1.71,1.71,0,0,1,1.32-.72v.63l-.25,0a1.45,1.45,0,0,0-1.07.63v2.8Z" style="fill:#fff"/><path d="M252.22,75.61a2,2,0,0,1,2-2.07,1.71,1.71,0,0,1,1.46.68l-.42.38a1.16,1.16,0,0,0-1-.52,1.54,1.54,0,0,0,0,3.06,1.18,1.18,0,0,0,1-.51l.42.37a1.69,1.69,0,0,1-1.46.69A2,2,0,0,1,252.22,75.61Z" style="fill:#fff"/><path d="M259.18,77.59V75c0-.7-.36-.91-.89-.91a1.57,1.57,0,0,0-1.17.62v2.89h-.62V72.13h.62v2.08a2,2,0,0,1,1.42-.67,1.11,1.11,0,0,1,1.26,1.26v2.79Z" style="fill:#fff"/><path d="M263.5,77.59v-.45a1.72,1.72,0,0,1-1.31.55,1.31,1.31,0,0,1-1.38-1.31,1.29,1.29,0,0,1,1.38-1.3,1.65,1.65,0,0,1,1.31.54V74.9c0-.53-.42-.83-1-.83a1.56,1.56,0,0,0-1.21.55l-.29-.43a2.09,2.09,0,0,1,1.58-.65c.84,0,1.54.37,1.54,1.33v2.72Zm0-.83V76a1.31,1.31,0,0,0-1.09-.49.87.87,0,1,0,0,1.73A1.34,1.34,0,0,0,263.5,76.76Z" style="fill:#fff"/><path d="M268,77.59V75c0-.69-.36-.92-.89-.92a1.53,1.53,0,0,0-1.17.62v2.89h-.61v-4H266v.58a2,2,0,0,1,1.41-.67,1.12,1.12,0,0,1,1.26,1.27v2.78Z" style="fill:#fff"/><path d="M270,76.76V74.17h-.65v-.54H270V72.55h.62v1.08h.8v.54h-.8v2.46c0,.3.13.51.4.51a.6.6,0,0,0,.42-.16l.18.46a1.05,1.05,0,0,1-.74.25A.82.82,0,0,1,270,76.76Z" style="fill:#fff"/><path d="M254.67,63.89h-7.81V58.68h7.81Zm11.72-5.21V56.07l-1.3-6.51H244.26L243,56.07v2.61h1.31v7.81h13V58.68h5.21v7.81h2.6V58.68Zm-1.3-13H244.26v2.61h20.83Z" style="fill:#fff"/></svg>